<?xml version="1.0" standalone="no"?>
<!DOCTYPE svg PUBLIC "-//W3C//DTD SVG 20010904//EN"
 "http://www.w3.org/TR/2001/REC-SVG-20010904/DTD/svg10.dtd">
<svg version="1.0" xmlns="http://www.w3.org/2000/svg"
 width="640.000000pt" height="1280.000000pt" viewBox="0 0 640.000000 1280.000000"
 preserveAspectRatio="xMidYMid meet">
<g transform="translate(0.000000,1280.000000) scale(0.100000,-0.100000)"
fill="#000000" stroke="none">
<path d="M3828 12775 c-225 -56 -348 -162 -455 -392 -53 -113 -48 -110 -173
-138 -41 -9 -101 -30 -133 -47 -70 -38 -73 -61 -11 -93 75 -40 161 -113 195
-167 l34 -52 6 -276 c7 -274 23 -440 51 -497 9 -18 36 -39 82 -63 66 -33 72
-39 117 -119 55 -96 69 -149 69 -265 0 -77 -2 -84 -27 -108 -66 -61 -318 -194
-423 -224 -102 -29 -195 -65 -265 -102 -71 -38 -72 -38 -231 -241 -18 -24 -39
-62 -45 -85 -17 -64 -102 -246 -115 -246 -17 0 -34 54 -34 105 0 69 -11 106
-34 115 -29 10 -44 3 -62 -32 -15 -28 -18 -30 -62 -25 -26 3 -171 15 -322 26
-151 11 -295 23 -320 26 -25 3 -144 12 -265 21 -121 8 -274 21 -340 28 -68 8
-124 11 -129 6 -5 -5 15 -48 47 -102 31 -51 77 -145 102 -208 58 -144 225
-637 295 -873 30 -98 58 -185 65 -193 9 -13 23 -12 120 10 86 19 113 22 122
13 7 -7 32 -44 56 -82 58 -94 183 -261 210 -280 12 -8 38 -15 58 -15 62 0 236
64 303 111 l60 42 145 -17 c196 -23 201 -24 210 -49 12 -34 -18 -427 -41 -542
-5 -27 -25 -76 -45 -108 -31 -52 -34 -63 -28 -105 10 -68 8 -198 -5 -267 -28
-155 -32 -166 -54 -180 -12 -8 -33 -15 -47 -14 -13 1 -53 2 -87 2 l-64 2 -31
46 c-18 25 -50 67 -72 92 -36 43 -43 47 -83 47 -41 0 -44 -2 -38 -22 3 -13 6
-39 6 -58 0 -25 11 -50 39 -86 37 -49 38 -53 36 -125 -3 -97 -36 -184 -80
-210 -53 -31 -59 -54 -41 -145 8 -43 18 -88 21 -99 3 -11 -1 -29 -9 -40 -13
-18 -16 -18 -30 -5 -8 8 -24 51 -35 94 -11 43 -26 83 -33 88 -21 14 -106 3
-128 -17 -11 -10 -20 -29 -20 -42 0 -31 -29 -30 -64 2 -33 31 -83 33 -119 5
-51 -40 -47 -58 43 -197 56 -85 61 -113 25 -137 -14 -9 -25 -22 -25 -29 0 -7
21 -42 46 -78 84 -117 138 -245 192 -457 27 -106 54 -198 60 -204 12 -12 57
-14 88 -4 19 7 23 2 35 -51 13 -52 18 -60 52 -76 45 -22 73 -17 117 19 21 18
34 24 41 17 12 -12 -15 -508 -31 -595 -6 -28 -17 -118 -25 -201 -8 -84 -22
-198 -31 -253 l-17 -102 28 -138 c15 -77 40 -185 56 -242 33 -118 34 -125 15
-142 -32 -26 -37 -109 -27 -402 7 -203 17 -334 36 -462 14 -98 25 -190 25
-204 0 -15 -22 -54 -54 -96 -30 -39 -70 -102 -89 -141 -19 -38 -51 -92 -71
-120 -62 -86 -56 -142 23 -228 25 -27 41 -54 41 -69 0 -15 -21 -54 -50 -93
-47 -64 -69 -103 -121 -222 -21 -46 -30 -55 -74 -74 -34 -14 -86 -24 -162 -30
-135 -10 -156 -15 -209 -45 -23 -13 -67 -33 -97 -44 -88 -33 -147 -114 -147
-202 0 -15 5 -51 11 -79 10 -47 21 -61 92 -132 45 -43 93 -84 107 -91 106 -54
458 -40 611 24 155 65 293 97 445 104 218 10 332 46 390 122 25 32 26 39 31
216 4 177 6 187 53 372 l49 191 11 265 c6 146 15 301 20 345 5 44 14 184 19
310 6 127 12 237 15 245 3 8 12 129 21 267 16 264 26 336 52 406 12 32 16 85
18 217 1 149 5 183 22 232 12 31 24 75 28 97 13 80 39 64 50 -32 3 -33 21
-110 40 -171 46 -155 90 -325 110 -430 22 -109 16 -235 -15 -351 -37 -135 -40
-172 -29 -315 13 -169 22 -236 59 -430 35 -186 80 -476 80 -521 0 -19 17 -63
42 -108 l41 -76 -19 -260 c-22 -309 -22 -308 11 -482 40 -210 92 -356 172
-485 17 -26 16 -27 -22 -73 -22 -25 -55 -68 -73 -93 -18 -26 -50 -63 -71 -82
-30 -27 -40 -46 -45 -80 -4 -25 -16 -75 -27 -111 l-21 -67 44 -56 c52 -69 160
-143 226 -156 26 -5 71 -14 100 -19 93 -19 144 -13 276 30 156 51 209 88 231
162 8 28 15 60 15 72 0 29 30 117 46 136 8 8 14 24 14 35 0 10 11 43 25 72 21
44 25 69 25 140 0 71 4 93 20 117 12 17 46 72 77 124 l56 93 4 97 c6 122 -4
140 -123 242 -49 41 -95 86 -102 100 -21 38 -9 134 26 210 57 124 73 205 79
409 5 179 -8 590 -29 910 -5 85 -11 268 -12 405 -4 324 -23 452 -102 680 -30
88 -65 191 -77 228 l-21 69 22 131 c12 73 34 227 48 342 15 116 30 219 35 231
9 26 115 52 145 36 34 -18 98 -371 134 -742 21 -219 51 -446 86 -650 37 -215
38 -252 8 -344 -17 -49 -16 -50 6 -68 60 -49 240 9 240 78 0 13 -7 51 -15 86
-14 61 -35 216 -70 513 -19 158 -46 325 -76 464 -35 165 -81 502 -82 606 -2
89 1 104 22 138 16 26 22 46 18 66 -5 24 0 33 25 55 49 40 90 32 155 -29 21
-20 44 -33 52 -30 8 3 22 -2 32 -11 41 -37 17 9 -30 59 -64 67 -140 113 -224
133 -42 11 -67 22 -67 30 0 8 6 14 14 14 25 0 28 19 12 68 -9 26 -25 91 -36
145 -11 54 -29 131 -41 173 l-22 75 33 34 c30 31 32 38 27 77 -13 90 -169 623
-189 643 -7 7 -15 2 -25 -12 -19 -28 -49 -30 -63 -4 -13 26 -13 165 1 215 9
34 8 46 -11 85 -21 45 -21 49 -6 146 8 55 21 121 28 148 12 44 15 47 45 47 17
0 43 4 57 10 34 13 34 52 1 96 -32 42 -32 57 4 71 19 7 37 26 51 54 21 40 22
52 16 164 -3 66 -8 145 -11 175 -3 30 -2 61 3 69 5 7 31 17 58 22 61 11 97 48
185 191 71 115 106 200 153 371 52 192 85 307 107 372 11 33 27 85 35 115 8
30 19 71 24 90 5 19 30 62 55 95 l46 60 -5 90 c-20 401 -26 472 -50 601 -38
213 -77 305 -171 411 -48 55 -72 69 -395 235 -85 44 -167 89 -182 99 -14 11
-31 19 -37 19 -5 0 -43 17 -82 38 -73 37 -120 90 -136 151 -7 27 24 97 69 153
30 39 57 119 58 173 0 17 21 66 50 115 28 47 50 89 50 94 0 5 25 36 56 68 l56
59 -7 72 c-3 40 -7 97 -9 127 -1 30 -11 70 -21 89 -16 30 -17 41 -7 78 17 62
15 237 -3 308 -29 113 -89 219 -174 303 -97 97 -198 185 -242 211 -40 23 -184
52 -284 57 -50 2 -98 -4 -167 -21z"/>
</g>
</svg>
